#Comment line ignore any data following # character 
#Hierarchical Translation and Rotation (.htr) file 
[Header]	
#Header keywords are followed by a single value 
FileType HTR		#Single word string
DataType HTRS		#Translation followed by rotation and scale data
FileVersion 1		#integer
NumSegments 84		#integer
NumFrames 2		#integer
DataFrameRate 30		#integer, data frame rate in this file
EulerRotationOrder ZYX
CalibrationUnits mm
RotationUnits Degrees
GlobalAxisofGravity Y
BoneLengthAxis Y
ScaleFactor 1.00
[SegmentNames&Hierarchy]
#CHILD	PARENT
MASTER GLOBAL
root MASTER
chest root
L_mid_tent01 root
R_mid_tent01 root
spine01 root
Bip01_Neck chest
L_humerus chest
R_humerus chest
weapon_bone chest
Bip01_Head Bip01_Neck
eye_left_bone Bip01_Head
eye_right_bone Bip01_Head
L_forearm L_humerus
L_front_hand L_forearm
L_weapon_bone L_forearm
L_front_hand01_01 L_front_hand
L_front_hand02_01 L_front_hand
L_front_hand03_01 L_front_hand
L_front_hand01_02 L_front_hand01_01
L_front_hand02_02 L_front_hand02_01
L_front_hand03_02 L_front_hand03_01
R_forearm R_humerus
R_front_hand R_forearm
R_weapon_bone R_forearm
R_front_hand01_01 R_front_hand
R_front_hand02_01 R_front_hand
R_front_hand03_01 R_front_hand
R_front_hand01_02 R_front_hand01_01
R_front_hand02_02 R_front_hand02_01
R_front_hand03_02 R_front_hand03_01
null_rope01_connect L_mid_tent01
Rope1_Seg01 null_rope01_connect
Rope1_Seg02 Rope1_Seg01
Rope1_Seg03 Rope1_Seg02
Rope1_Seg04 Rope1_Seg03
Rope1_Seg05 Rope1_Seg04
Rope1_Seg06 Rope1_Seg05
Rope1_Seg07 Rope1_Seg06
Rope1_Seg09 Rope1_Seg07
L_mid_hand01 Rope1_Seg09
L_mid_hand02 Rope1_Seg09
L_mid_hand03 Rope1_Seg09
null_rope02_connect R_mid_tent01
Rope2_Seg01 null_rope02_connect
Rope2_Seg02 Rope2_Seg01
Rope2_Seg03 Rope2_Seg02
Rope2_Seg04 Rope2_Seg03
Rope2_Seg05 Rope2_Seg04
Rope2_Seg06 Rope2_Seg05
Rope2_Seg07 Rope2_Seg06
Rope2_Seg09 Rope2_Seg07
R_mid_hand01 Rope2_Seg09
R_mid_hand02 Rope2_Seg09
R_mid_hand03 Rope2_Seg09
spine02 spine01
spine03 spine02
pelvis spine03
null_rope03_connect pelvis
null_rope04_connect pelvis
Rope3_Seg01 null_rope03_connect
Rope3_Seg02 Rope3_Seg01
Rope3_Seg03 Rope3_Seg02
Rope3_Seg04 Rope3_Seg03
Rope3_Seg05 Rope3_Seg04
Rope3_Seg06 Rope3_Seg05
Rope3_Seg07 Rope3_Seg06
Rope3_Seg08 Rope3_Seg07
Rope3_Seg09 Rope3_Seg08
R_rear_hand01 Rope3_Seg09
R_rear_hand02 Rope3_Seg09
R_rear_hand03 Rope3_Seg09
Rope4_Seg01 null_rope04_connect
Rope4_Seg02 Rope4_Seg01
Rope4_Seg03 Rope4_Seg02
Rope4_Seg04 Rope4_Seg03
Rope4_Seg05 Rope4_Seg04
Rope4_Seg06 Rope4_Seg05
Rope4_Seg07 Rope4_Seg06
Rope4_Seg08 Rope4_Seg07
Rope4_Seg09 Rope4_Seg08
L_rear_hand01 Rope4_Seg09
L_rear_hand02 Rope4_Seg09
L_rear_hand03 Rope4_Seg09
[BasePosition]
#SegmentName Tx, Ty, Tz, Rx, Ry, Rz, BoneLength
MASTER 0.000000 0.000000 0.000000 -90.000000 0.000000 0.000000 10.000000 
root 0.000000 0.000000 0.000000 0.000000 0.000000 0.000000 10.000000 
chest 0.000000 0.000000 0.000000 0.000000 0.000000 0.000000 10.000000 
L_mid_tent01 0.000000 0.000000 0.000000 0.000000 0.000000 0.000000 10.000000 
R_mid_tent01 0.000000 0.000000 0.000000 0.000000 0.000000 0.000000 10.000000 
spine01 0.000000 0.000000 0.000000 0.000000 0.000000 0.000000 10.000000 
Bip01_Neck 0.000000 0.000000 0.000000 0.000000 0.000000 0.000000 10.000000 
L_humerus 0.000000 0.000000 0.000000 0.000000 0.000000 0.000000 10.000000 
R_humerus 0.000000 0.000000 0.000000 0.000000 0.000000 0.000000 10.000000 
weapon_bone 0.000000 0.000000 0.000000 0.000000 0.000000 0.000000 10.000000 
Bip01_Head 0.000000 0.000000 0.000000 0.000000 0.000000 0.000000 10.000000 
eye_left_bone 0.000000 0.000000 0.000000 0.000000 0.000000 0.000000 10.000000 
eye_right_bone 0.000000 0.000000 0.000000 0.000000 0.000000 0.000000 10.000000 
L_forearm 0.000000 0.000000 0.000000 0.000000 0.000000 0.000000 10.000000 
L_front_hand 0.000000 0.000000 0.000000 0.000000 0.000000 0.000000 10.000000 
L_weapon_bone 0.000000 0.000000 0.000000 0.000000 0.000000 0.000000 10.000000 
L_front_hand01_01 0.000000 0.000000 0.000000 0.000000 0.000000 0.000000 10.000000 
L_front_hand02_01 0.000000 0.000000 0.000000 0.000000 0.000000 0.000000 10.000000 
L_front_hand03_01 0.000000 0.000000 0.000000 0.000000 0.000000 0.000000 10.000000 
L_front_hand01_02 0.000000 0.000000 0.000000 0.000000 0.000000 0.000000 10.000000 
L_front_hand02_02 0.000000 0.000000 0.000000 0.000000 0.000000 0.000000 10.000000 
L_front_hand03_02 0.000000 0.000000 0.000000 0.000000 0.000000 0.000000 10.000000 
R_forearm 0.000000 0.000000 0.000000 0.000000 0.000000 0.000000 10.000000 
R_front_hand 0.000000 0.000000 0.000000 0.000000 0.000000 0.000000 10.000000 
R_weapon_bone 0.000000 0.000000 0.000000 0.000000 0.000000 0.000000 10.000000 
R_front_hand01_01 0.000000 0.000000 0.000000 0.000000 0.000000 0.000000 10.000000 
R_front_hand02_01 0.000000 0.000000 0.000000 0.000000 0.000000 0.000000 10.000000 
R_front_hand03_01 0.000000 0.000000 0.000000 0.000000 0.000000 0.000000 10.000000 
R_front_hand01_02 0.000000 0.000000 0.000000 0.000000 0.000000 0.000000 10.000000 
R_front_hand02_02 0.000000 0.000000 0.000000 0.000000 0.000000 0.000000 10.000000 
R_front_hand03_02 0.000000 0.000000 0.000000 0.000000 0.000000 0.000000 10.000000 
null_rope01_connect 0.000000 0.000000 0.000000 0.000000 0.000000 0.000000 10.000000 
Rope1_Seg01 0.000000 0.000000 0.000000 0.000000 0.000000 0.000000 10.000000 
Rope1_Seg02 0.000000 0.000000 0.000000 0.000000 0.000000 0.000000 10.000000 
Rope1_Seg03 0.000000 0.000000 0.000000 0.000000 0.000000 0.000000 10.000000 
Rope1_Seg04 0.000000 0.000000 0.000000 0.000000 0.000000 0.000000 10.000000 
Rope1_Seg05 0.000000 0.000000 0.000000 0.000000 0.000000 0.000000 10.000000 
Rope1_Seg06 0.000000 0.000000 0.000000 0.000000 0.000000 0.000000 10.000000 
Rope1_Seg07 0.000000 0.000000 0.000000 0.000000 0.000000 0.000000 10.000000 
Rope1_Seg09 0.000000 0.000000 0.000000 0.000000 0.000000 0.000000 10.000000 
L_mid_hand01 0.000000 0.000000 0.000000 0.000000 0.000000 0.000000 10.000000 
L_mid_hand02 0.000000 0.000000 0.000000 0.000000 0.000000 0.000000 10.000000 
L_mid_hand03 0.000000 0.000000 0.000000 0.000000 0.000000 0.000000 10.000000 
null_rope02_connect 0.000000 0.000000 0.000000 0.000000 0.000000 0.000000 10.000000 
Rope2_Seg01 0.000000 0.000000 0.000000 0.000000 0.000000 0.000000 10.000000 
Rope2_Seg02 0.000000 0.000000 0.000000 0.000000 0.000000 0.000000 10.000000 
Rope2_Seg03 0.000000 0.000000 0.000000 0.000000 0.000000 0.000000 10.000000 
Rope2_Seg04 0.000000 0.000000 0.000000 0.000000 0.000000 0.000000 10.000000 
Rope2_Seg05 0.000000 0.000000 0.000000 0.000000 0.000000 0.000000 10.000000 
Rope2_Seg06 0.000000 0.000000 0.000000 0.000000 0.000000 0.000000 10.000000 
Rope2_Seg07 0.000000 0.000000 0.000000 0.000000 0.000000 0.000000 10.000000 
Rope2_Seg09 0.000000 0.000000 0.000000 0.000000 0.000000 0.000000 10.000000 
R_mid_hand01 0.000000 0.000000 0.000000 0.000000 0.000000 0.000000 10.000000 
R_mid_hand02 0.000000 0.000000 0.000000 0.000000 0.000000 0.000000 10.000000 
R_mid_hand03 0.000000 0.000000 0.000000 0.000000 0.000000 0.000000 10.000000 
spine02 0.000000 0.000000 0.000000 0.000000 0.000000 0.000000 10.000000 
spine03 0.000000 0.000000 0.000000 0.000000 0.000000 0.000000 10.000000 
pelvis 0.000000 0.000000 0.000000 0.000000 0.000000 0.000000 10.000000 
null_rope03_connect 0.000000 0.000000 0.000000 0.000000 0.000000 0.000000 10.000000 
null_rope04_connect 0.000000 0.000000 0.000000 0.000000 0.000000 0.000000 10.000000 
Rope3_Seg01 0.000000 0.000000 0.000000 0.000000 0.000000 0.000000 10.000000 
Rope3_Seg02 0.000000 0.000000 0.000000 0.000000 0.000000 0.000000 10.000000 
Rope3_Seg03 0.000000 0.000000 0.000000 0.000000 0.000000 0.000000 10.000000 
Rope3_Seg04 0.000000 0.000000 0.000000 0.000000 0.000000 0.000000 10.000000 
Rope3_Seg05 0.000000 0.000000 0.000000 0.000000 0.000000 0.000000 10.000000 
Rope3_Seg06 0.000000 0.000000 0.000000 0.000000 0.000000 0.000000 10.000000 
Rope3_Seg07 0.000000 0.000000 0.000000 0.000000 0.000000 0.000000 10.000000 
Rope3_Seg08 0.000000 0.000000 0.000000 0.000000 0.000000 0.000000 10.000000 
Rope3_Seg09 0.000000 0.000000 0.000000 0.000000 0.000000 0.000000 10.000000 
R_rear_hand01 0.000000 0.000000 0.000000 0.000000 0.000000 0.000000 10.000000 
R_rear_hand02 0.000000 0.000000 0.000000 0.000000 0.000000 0.000000 10.000000 
R_rear_hand03 0.000000 0.000000 0.000000 0.000000 0.000000 0.000000 10.000000 
Rope4_Seg01 0.000000 0.000000 0.000000 0.000000 0.000000 0.000000 10.000000 
Rope4_Seg02 0.000000 0.000000 0.000000 0.000000 0.000000 0.000000 10.000000 
Rope4_Seg03 0.000000 0.000000 0.000000 0.000000 0.000000 0.000000 10.000000 
Rope4_Seg04 0.000000 0.000000 0.000000 0.000000 0.000000 0.000000 10.000000 
Rope4_Seg05 0.000000 0.000000 0.000000 0.000000 0.000000 0.000000 10.000000 
Rope4_Seg06 0.000000 0.000000 0.000000 0.000000 0.000000 0.000000 10.000000 
Rope4_Seg07 0.000000 0.000000 0.000000 0.000000 0.000000 0.000000 10.000000 
Rope4_Seg08 0.000000 0.000000 0.000000 0.000000 0.000000 0.000000 10.000000 
Rope4_Seg09 0.000000 0.000000 0.000000 0.000000 0.000000 0.000000 10.000000 
L_rear_hand01 0.000000 0.000000 0.000000 0.000000 0.000000 0.000000 10.000000 
L_rear_hand02 0.000000 0.000000 0.000000 0.000000 0.000000 0.000000 10.000000 
L_rear_hand03 0.000000 0.000000 0.000000 0.000000 0.000000 0.000000 10.000000 
#Beginning of Data. Separated by tabs
#Fr	Tx	Ty	Tz	Rx	Ry	Rz	SF
[MASTER]
8 -0.000096 730.813477 627.187561 0.001660 0.001660 0.001660 963.043396
9 -0.000116 851.106750 899.292969 0.001660 0.001660 0.001660 1238.188354
[root]
8 -27.092995 241.473907 1003.448486 -87.108566 1.854860 -92.137253 1032.449707
9 -28.510830 222.925659 1036.086792 -86.355499 4.041214 -92.400368 1060.181396
[chest]
8 -84.512650 -34.090519 0.000000 -1.361818 -0.010532 -155.571472 91.129311
9 -84.512650 -34.090519 0.000000 -1.356192 0.038668 -155.587250 91.129311
[L_mid_tent01]
8 27.299076 22.179079 -249.918686 -2.196988 12.954253 61.980942 252.381668
9 27.299070 22.179075 -249.918686 0.262469 11.832314 68.897591 252.381668
[R_mid_tent01]
8 23.228794 24.509907 226.238495 169.808609 -7.303454 64.413330 228.744751
9 23.228794 24.509907 226.238495 167.549713 -5.754030 68.942535 228.744751
[spine01]
8 -0.361383 -0.195265 0.000000 0.002039 0.001162 30.648182 0.410763
9 -0.361383 -0.195265 0.000000 0.002054 0.001137 32.071095 0.410763
[Bip01_Neck]
8 165.484543 71.581718 0.000119 176.643677 -1.657967 43.431911 180.302734
9 165.484543 71.581718 0.000119 176.643677 -1.657967 43.431911 180.302734
[L_humerus]
8 -13.983130 -135.272980 -120.471481 154.895325 68.896820 -127.550072 181.680161
9 -13.983130 -135.272980 -120.471481 159.693527 61.246861 -124.799713 181.680161
[R_humerus]
8 -13.983309 -135.273102 125.287651 -160.524414 -66.837143 -117.074310 184.909012
9 -13.983309 -135.273102 125.287651 -161.827011 -58.626751 -118.033646 184.909012
[weapon_bone]
8 235.964890 -300.705902 0.000000 0.000000 -89.951546 -128.212341 382.234833
9 235.964890 -300.705902 0.000000 0.000000 -89.951546 -128.212341 382.234833
[Bip01_Head]
8 213.434586 185.743515 11.418089 4.968389 5.247295 -43.853741 283.170166
9 213.433228 185.747513 11.366826 4.987259 10.061256 -43.762226 283.169708
[eye_left_bone]
8 -24.626970 125.451866 -64.772606 0.000000 -90.000000 -99.840431 143.318359
9 -24.626970 125.451866 -64.772606 0.000000 -90.000000 -99.840431 143.318359
[eye_right_bone]
8 -24.626970 125.451866 64.327362 0.000000 -89.965736 80.156380 143.117676
9 -24.626970 125.451866 64.327362 0.000000 -89.965736 80.156380 143.117676
[L_forearm]
8 322.776093 0.000000 -0.000119 0.000425 -0.002308 -110.879745 322.776093
9 322.776093 0.000000 -0.000119 0.000427 -0.002308 -110.972778 322.776093
[L_front_hand]
8 241.149185 -0.042021 -3.300071 -178.667953 -1.835447 -27.422350 241.171753
9 241.149185 -0.042021 -3.300071 -178.667953 -1.835447 -27.422350 241.171753
[L_weapon_bone]
8 156.183838 0.000000 0.000000 0.000014 0.000007 0.000001 156.183838
9 156.183838 0.000000 0.000000 0.000014 0.000007 0.000001 156.183838
[L_front_hand01_01]
8 86.095154 20.947098 -0.655860 -0.320921 -0.506953 70.185371 88.609184
9 86.095154 20.947098 -0.655860 -0.306535 -0.513312 68.646957 88.609184
[L_front_hand02_01]
8 86.935165 -11.437475 24.513514 146.961243 -57.333778 -52.657810 91.046425
9 86.935165 -11.437475 24.513514 145.004044 -56.473930 -50.323570 91.046425
[L_front_hand03_01]
8 86.637497 -14.123976 -20.424902 -146.985428 55.548393 -54.432800 90.126129
9 86.637497 -14.123976 -20.424902 -145.151367 54.687611 -52.198399 90.126129
[L_front_hand01_02]
8 71.020905 -0.000179 0.000030 0.000317 -0.002326 -105.513641 71.020905
9 71.020905 -0.000179 0.000030 0.000316 -0.002326 -105.490036 71.020905
[L_front_hand02_02]
8 71.020927 -0.000119 0.000060 0.000317 -0.002326 -105.513641 71.020927
9 71.020927 -0.000119 0.000060 0.000316 -0.002326 -105.490036 71.020927
[L_front_hand03_02]
8 71.020905 -0.000060 0.000060 0.000317 -0.002326 -105.513641 71.020905
9 71.020905 -0.000060 0.000060 0.000316 -0.002326 -105.490036 71.020905
[R_forearm]
8 322.776428 -0.000060 0.000030 0.201249 0.067748 -109.534790 322.776428
9 322.776428 -0.000060 0.000030 0.201192 0.067918 -109.631622 322.776428
[R_front_hand]
8 238.847015 -0.006795 2.210259 -2.635298 -10.645461 -26.312506 238.857239
9 238.847015 -0.006795 2.210259 -2.635298 -10.645461 -26.312506 238.857239
[R_weapon_bone]
8 155.664093 0.002503 -0.000030 0.003487 0.001180 -90.988930 155.664078
9 155.664093 0.002503 -0.000030 0.003487 0.001180 -90.988930 155.664078
[R_front_hand01_01]
8 87.624611 14.231146 22.918642 -147.670532 -57.619129 53.605919 91.683487
9 87.624611 14.231146 22.918642 -145.613235 -56.747219 51.157963 91.683487
[R_front_hand02_01]
8 89.356956 14.367283 -19.491137 148.052338 55.989685 55.954594 92.579636
9 89.356956 14.367283 -19.491137 146.110458 55.128284 53.601921 92.579636
[R_front_hand03_01]
8 87.286232 -22.307278 -0.143439 0.125269 -0.437058 -70.957222 90.091743
9 87.286232 -22.307278 -0.143439 0.113738 -0.439575 -69.369316 90.091743
[R_front_hand01_02]
8 71.020905 0.000060 0.000119 0.002323 -0.000334 106.381714 71.020905
9 71.020905 0.000060 0.000119 0.002323 -0.000334 106.381714 71.020905
[R_front_hand02_02]
8 71.020844 -0.000030 -0.000119 0.002323 -0.000334 106.381714 71.020836
9 71.020844 -0.000030 -0.000119 0.002323 -0.000334 106.381714 71.020836
[R_front_hand03_02]
8 71.020905 0.000000 0.000030 0.002323 -0.000334 106.381714 71.020905
9 71.020905 0.000000 0.000030 0.002323 -0.000334 106.381714 71.020905
[null_rope01_connect]
8 328.732483 0.000000 -0.000238 -148.671173 -78.618324 174.291183 328.732483
9 328.732483 0.000000 -0.000238 -140.159866 -80.079025 156.954559 328.732483
[Rope1_Seg01]
8 0.000007 -0.000086 -0.000055 -22.097927 78.651978 -14.990882 0.000102
9 0.000008 -0.000093 -0.000063 -36.167126 74.917870 -31.308119 0.000112
[Rope1_Seg02]
8 139.999863 -0.000179 0.000000 2.126966 0.465432 -7.613033 139.999863
9 139.999863 -0.000179 0.000000 0.814712 0.479288 -3.155732 139.999863
[Rope1_Seg03]
8 139.999924 0.000060 -0.000060 4.588678 0.264116 -11.231600 139.999924
9 139.999924 0.000060 -0.000060 1.325040 0.601448 -4.354881 139.999924
[Rope1_Seg04]
8 139.999924 -0.000060 -0.000119 12.242461 -0.046281 -18.421741 139.999924
9 139.999924 -0.000060 -0.000119 2.367885 1.060666 -6.638765 139.999924
[Rope1_Seg05]
8 139.999832 0.000119 -0.000060 29.659256 -4.373080 -23.016354 139.999832
9 139.999832 0.000119 -0.000060 6.277793 4.681973 -15.175313 139.999832
[Rope1_Seg06]
8 139.999954 0.000119 -0.000060 9.009886 -7.600531 -1.378651 139.999954
9 139.999954 0.000119 -0.000060 13.251842 -7.514721 -7.777168 139.999954
[Rope1_Seg07]
8 139.999985 0.000060 0.000000 -4.269505 -1.719424 7.713728 139.999985
9 139.999985 0.000060 0.000000 1.625357 -7.510441 5.270139 139.999985
[Rope1_Seg09]
8 121.602913 0.000119 -0.000089 -89.793175 -1.359789 0.847147 121.602913
9 121.602913 0.000119 -0.000089 -89.793175 -1.359789 0.847147 121.602913
[L_mid_hand01]
8 103.859421 1.038730 8.195221 109.437721 -41.837849 -13.776229 104.187431
9 103.859421 1.038730 8.195221 109.056190 -40.604698 -13.201404 104.187431
[L_mid_hand02]
8 105.572853 -4.139662 -10.864139 -147.395187 32.186741 -39.191986 106.211075
9 105.572853 -4.139662 -10.864139 -146.713593 31.476528 -37.902313 106.211075
[L_mid_hand03]
8 104.641464 17.579376 -3.913581 -13.988547 12.638443 45.197113 106.179977
9 104.641464 17.579376 -3.913581 -14.267232 12.322316 43.898403 106.179977
[null_rope02_connect]
8 328.732849 0.000179 -0.000119 -117.931152 78.622719 37.269993 328.732849
9 328.732849 0.000179 -0.000119 -115.908066 77.834816 45.898705 328.732849
[Rope2_Seg01]
8 0.000083 0.000039 0.000000 42.211548 84.426064 155.917358 0.000092
9 0.000084 0.000028 0.000000 84.584122 83.716469 -160.495743 0.000089
[Rope2_Seg02]
8 139.999741 -0.000060 -0.000119 -1.764654 10.194632 1.855531 139.999756
9 139.999741 -0.000060 -0.000119 -0.691132 5.689326 -0.389218 139.999756
[Rope2_Seg03]
8 140.000107 0.000030 0.000000 -4.106528 13.424218 2.941977 140.000107
9 140.000107 0.000030 0.000000 -1.119985 6.654032 -0.375567 140.000107
[Rope2_Seg04]
8 139.999802 0.000000 -0.000060 -8.633326 18.493233 1.714274 139.999802
9 139.999802 0.000000 -0.000060 -1.001391 8.748858 -2.604912 139.999802
[Rope2_Seg05]
8 139.999985 -0.000060 0.000119 -14.813352 14.534212 4.333754 139.999985
9 139.999985 -0.000060 0.000119 -0.273248 10.240696 -4.895447 139.999985
[Rope2_Seg06]
8 139.999893 -0.000030 -0.000119 -14.341131 -0.530766 11.858165 139.999893
9 139.999893 -0.000030 -0.000119 -9.575482 4.378346 7.752037 139.999893
[Rope2_Seg07]
8 139.999893 0.000060 -0.000060 -7.784480 -13.374733 14.508001 139.999893
9 139.999893 0.000060 -0.000060 -14.213473 -4.495147 20.787874 139.999893
[Rope2_Seg09]
8 121.338966 0.000089 -0.000060 33.793236 -1.359788 -0.847141 121.338966
9 121.338966 0.000089 -0.000060 33.793236 -1.359788 -0.847141 121.338966
[R_mid_hand01]
8 104.680779 11.144459 -10.335981 -30.935741 37.970638 48.479160 105.778534
9 104.680779 11.144459 -10.335981 -33.085686 36.191681 44.913227 105.778534
[R_mid_hand02]
8 104.070427 2.443552 8.231699 65.981003 -52.455715 19.994478 104.424065
9 104.070427 2.443552 8.231699 67.611252 -49.370300 17.897308 104.424065
[R_mid_hand03]
8 106.028137 -11.221827 -5.996406 -172.374313 13.894680 -58.153645 106.788818
9 106.028137 -11.221827 -5.996406 -171.571182 13.427422 -54.737041 106.788818
[spine02]
8 129.756927 0.001550 0.000119 -1.293609 -3.852090 10.700431 129.756927
9 129.756927 0.001550 0.000119 -1.284493 -3.853947 10.575894 129.756927
[spine03]
8 78.614082 0.081537 -4.899011 1.981648 3.787963 17.776325 78.766624
9 78.614090 0.081545 -4.899012 1.990023 3.785372 17.881750 78.766632
[pelvis]
8 169.435242 0.051022 0.000000 -0.069525 -0.178053 16.748095 169.435257
9 169.435242 0.051022 0.000000 -0.069820 -0.177937 16.938078 169.435257
[null_rope03_connect]
8 -1.257226 -2.466202 137.391083 -39.967995 -86.873817 52.417694 137.418976
9 -1.257226 -2.466202 137.391083 -37.302223 -86.020935 45.998013 137.418976
[null_rope04_connect]
8 -1.259640 -2.480268 -137.844437 -39.967995 -86.873817 52.417694 137.872513
9 -1.259640 -2.480268 -137.844437 -37.302223 -86.020935 45.998013 137.872513
[Rope3_Seg01]
8 -0.000029 -0.000031 0.000055 -151.831512 44.534874 -101.870552 0.000069
9 -0.000029 -0.000030 0.000063 -149.876617 46.332859 -97.985031 0.000075
[Rope3_Seg02]
8 139.999924 -0.000119 0.000060 1.426216 -1.116969 -6.857028 139.999924
9 139.999924 -0.000119 0.000060 -0.904594 -4.379722 -2.191133 139.999924
[Rope3_Seg03]
8 139.999924 -0.000119 0.000119 0.940820 -1.990456 -7.261313 139.999924
9 139.999924 -0.000119 0.000119 -0.655755 -4.196666 -2.186684 139.999924
[Rope3_Seg04]
8 139.999924 0.000119 0.000000 0.598826 -6.234259 -10.208015 139.999924
9 139.999924 0.000119 0.000000 -0.703404 -7.660745 -4.135748 139.999924
[Rope3_Seg05]
8 139.999924 -0.000238 0.000060 0.430461 5.085336 -0.711916 139.999924
9 139.999924 -0.000238 0.000060 0.130271 -0.072478 -0.042934 139.999924
[Rope3_Seg06]
8 139.999893 -0.000119 -0.000060 3.148145 14.462565 7.462556 139.999893
9 139.999893 -0.000119 -0.000060 2.097132 9.270488 5.195613 139.999893
[Rope3_Seg07]
8 139.999771 0.000060 -0.000119 3.114444 8.772012 3.441534 139.999771
9 139.999771 0.000060 -0.000119 3.376792 9.837513 5.145696 139.999771
[Rope3_Seg08]
8 139.999985 -0.000060 0.000000 2.424343 4.945221 1.413565 139.999985
9 139.999985 -0.000060 0.000000 2.517152 5.343523 2.432007 139.999985
[Rope3_Seg09]
8 90.185997 -0.000179 -0.000060 89.793228 -1.359877 -0.847183 90.185997
9 90.185997 -0.000179 -0.000060 89.793228 -1.359877 -0.847183 90.185997
[R_rear_hand01]
8 103.366196 -6.073594 -10.757982 -168.239929 21.836601 -50.169041 104.101845
9 103.366196 -6.073594 -10.757982 -166.818848 21.039259 -46.280426 104.101845
[R_rear_hand02]
8 100.509819 12.039542 -7.992327 -26.552094 29.320538 47.442062 101.543350
9 100.509819 12.039542 -7.992327 -28.339693 27.613865 43.697414 101.543350
[R_rear_hand03]
8 101.539970 5.215704 5.435467 81.061966 -50.389515 10.772507 101.819031
9 101.539970 5.215704 5.435467 81.685280 -46.725750 9.939899 101.819031
[Rope4_Seg01]
8 0.000010 0.000031 -0.000125 76.103493 28.980480 -51.194317 0.000129
9 0.000010 0.000030 -0.000121 59.904545 21.291426 -69.965218 0.000125
[Rope4_Seg02]
8 139.999985 0.000060 0.000119 4.670786 -14.996104 -11.513363 139.999985
9 139.999985 0.000060 0.000119 11.811953 -1.983913 -25.572718 139.999985
[Rope4_Seg03]
8 139.999924 0.000000 -0.000238 3.856781 -17.670656 -13.490377 139.999924
9 139.999924 0.000000 -0.000238 4.154545 -5.089369 -17.152367 139.999924
[Rope4_Seg04]
8 139.999985 0.000000 0.000119 2.854101 -18.145388 -17.444624 139.999985
9 139.999985 0.000000 0.000119 1.072430 -4.537879 -11.787411 139.999985
[Rope4_Seg05]
8 139.999802 -0.000060 -0.000119 0.787951 -3.080983 2.226811 139.999802
9 139.999802 -0.000060 -0.000119 0.075341 0.160161 -0.359274 139.999802
[Rope4_Seg06]
8 139.999924 0.000000 0.000060 3.024318 7.956669 19.953516 139.999924
9 139.999924 0.000000 0.000060 0.156321 3.773795 7.543661 139.999924
[Rope4_Seg07]
8 139.999802 0.000000 0.000000 -0.966620 8.973973 20.198156 139.999802
9 139.999802 0.000000 0.000000 -2.068398 10.108737 21.661198 139.999802
[Rope4_Seg08]
8 139.999924 0.000000 0.000119 -3.925878 2.738676 8.598444 139.999924
9 139.999924 0.000000 0.000119 -7.291042 6.127154 15.202415 139.999924
[Rope4_Seg09]
8 90.185791 0.000060 0.000060 -135.617828 2.228885 0.850567 90.185791
9 90.185791 0.000060 0.000060 -135.617828 2.228885 0.850567 90.185791
[L_rear_hand01]
8 101.696655 -8.392275 -7.654577 -31.429779 -23.932980 143.406311 102.329041
9 101.696655 -8.392275 -7.654577 -30.719042 -24.879360 141.681366 102.329041
[L_rear_hand02]
8 102.726799 -1.568258 5.773216 82.628296 39.414524 171.441574 102.900848
9 102.726799 -1.568258 5.773216 82.428490 41.230476 171.131027 102.900848
[L_rear_hand03]
8 104.552910 9.721220 -10.420293 -164.198181 -19.188400 -141.332687 105.519653
9 104.552910 9.721220 -10.420293 -164.822937 -19.676041 -139.457672 105.519653
